# xmcd
#
# Track frame offsets:
#	150
#	16485
#	35705
#	51618
#	66657
#	80553
#	94750
#	111977
#	127300
#	147200
#	163529
#	180198
#	197053
#
# Disc length: 2811 seconds
#
# Revision: 0
# Processed by: cddbd v1.5.2PL0 Copyright (c) Steve Scherf et al.
# Submitted via: EZCDAudioConverter 5.0.0.1
#
DISCID=c30af90d
DTITLE=Seong-A - A Memory Of Love
DYEAR=2007
DGENRE=
TTITLE0=떠난 그 곳에
TTITLE1=사랑했었는데..
TTITLE2=너 하난데
TTITLE3=고백하는 날
TTITLE4=Cocomi (Love Song)
TTITLE5=미운 오리
TTITLE6=True Color
TTITLE7=환상동화
TTITLE8=내안의 그대
TTITLE9=숨..
TTITLE10=한번만
TTITLE11=떠난 너를 보면서
TTITLE12=Cocomi (Aeustic Ver.)
EXTD=
EXTT0=
EXTT1=
EXTT2=
EXTT3=
EXTT4=
EXTT5=
EXTT6=
EXTT7=
EXTT8=
EXTT9=
EXTT10=
EXTT11=
EXTT12=
PLAYORDER=
